<svg xml:space="preserve" style="enable-background:new 0 0 160.9 181.3;" viewBox="0 0 160.9 181.3" y="0px" x="0px" xmlns:xlink="http://www.w3.org/1999/xlink" xmlns="http://www.w3.org/2000/svg" id="Layer_1" version="1.1">
<style type="text/css">
	.st0{fill:url(#SVGID_1_);}
	.st1{fill:none;stroke:url(#SVGID_00000079449919790737472320000008908182749314530720_);stroke-miterlimit:10;}
	.st2{fill:none;stroke:url(#SVGID_00000087391560231695416200000005540828802148886187_);stroke-width:0.5;stroke-miterlimit:10;}
	.st3{fill:none;stroke:url(#SVGID_00000165956701233259235060000017687791595141004936_);stroke-width:0.75;stroke-miterlimit:10;}
	.st4{fill:url(#SVGID_00000145737977800073261660000015790185261377831297_);}
	.st5{fill:url(#SVGID_00000119826211755826170810000007906632474976765841_);}
	.st6{fill:url(#SVGID_00000038374338425987498510000009768816729929242558_);}
	.st7{opacity:0.4;fill:url(#SVGID_00000120520822791110614810000005967095101248613283_);enable-background:new    ;}
	.st8{fill:url(#SVGID_00000055706490905800899120000008158791633537627070_);}
	.st9{opacity:0.4;fill:url(#SVGID_00000155125488765127813730000006054641591896945040_);enable-background:new    ;}
	.st10{fill:url(#SVGID_00000164487269686046705090000000438256718847557297_);}
	.st11{fill:url(#SVGID_00000048502613944310955720000001768011586549464195_);}
	.st12{fill:url(#SVGID_00000045609815646527172100000016812019111792436915_);}
	.st13{fill:url(#SVGID_00000023994522049828945670000005697345535536722313_);}
	.st14{fill:url(#SVGID_00000139289045913985116880000010588129263843337111_);}
	.st15{fill:url(#SVGID_00000046335460731789098710000007383683602934103698_);}
	.st16{fill:url(#SVGID_00000175296737736615123550000010337961930638646697_);}
	.st17{opacity:0.4;fill:url(#SVGID_00000078019244267633559730000016101269140317458575_);enable-background:new    ;}
	.st18{fill:#E2A610;}
	.st19{fill:#F9408F;}
	.st20{fill:#FFFFFF;}
	.st21{fill:#6B7A9B;}
	.st22{fill:#20E7B8;}
	.st23{fill:#FF7D12;}
	.st24{fill:#ADB2CC;}
	.st25{fill:#3A3AB4;}
	.st26{fill:#5252D3;}
	.st27{fill:#CDDCFB;}
	.st28{fill:#EEEFF0;}
	.st29{fill:#1D69D8;}
	.st30{fill:#FFB700;}
	.st31{fill:#FFDE38;}
	.st32{fill:#DCD9F6;}
	.st33{fill:#58577C;}
	.st34{fill:url(#SVGID_00000076586724480068809780000015141256735153707962_);}
	.st35{fill:url(#SVGID_00000062178225157391057500000005473595833273122973_);}
	.st36{fill:url(#SVGID_00000147910387502827210080000016137842154635104644_);}
	.st37{fill:url(#SVGID_00000026883274221367541990000005906285062575429779_);}
	.st38{fill:url(#SVGID_00000022536126219182914150000001541111668880827552_);}
	.st39{fill:url(#SVGID_00000156589575368353985500000000037742286060981895_);}
</style>
<g>
	<g id="Layer_2_00000088811327203141692300000007321891654631919523_">
		<g id="Layer_2-2">
			
				<linearGradient gradientTransform="matrix(1 0 0 -1 0 184)" y2="27.4585" x2="118.5108" y1="159.2814" x1="42.3992" gradientUnits="userSpaceOnUse" id="SVGID_1_">
				<stop style="stop-color:#EC5C58;stop-opacity:0.8" offset="0"></stop>
				<stop style="stop-color:#EC5C58;stop-opacity:0.71" offset="7.000000e-02"></stop>
				<stop style="stop-color:#EC5C58;stop-opacity:0.5" offset="0.24"></stop>
				<stop style="stop-color:#EC5C58;stop-opacity:0.32" offset="0.41"></stop>
				<stop style="stop-color:#EC5C58;stop-opacity:0.18" offset="0.57"></stop>
				<stop style="stop-color:#EC5C58;stop-opacity:8.000000e-02" offset="0.73"></stop>
				<stop style="stop-color:#EC5C58;stop-opacity:2.000000e-02" offset="0.87"></stop>
				<stop style="stop-color:#EC5C58;stop-opacity:0" offset="1"></stop>
			</linearGradient>
			<path d="M156.6,126.8V54.5c0-4.8-2.6-9.3-6.8-11.7L87.2,6.7c-4.2-2.4-9.3-2.4-13.5,0L11.1,42.8
				c-4.2,2.4-6.8,6.9-6.8,11.7v72.3c0,4.8,2.6,9.3,6.8,11.7l62.6,36.1c4.2,2.4,9.3,2.4,13.5,0l62.6-36.1
				C154,136.1,156.6,131.6,156.6,126.8z" class="st0"></path>
			
				<linearGradient gradientTransform="matrix(1 0 0 -1 0 184)" y2="163.0481" x2="40.2256" y1="23.6672" x1="120.6935" gradientUnits="userSpaceOnUse" id="SVGID_00000069378704645797461720000002739104735637700011_">
				<stop style="stop-color:#FF6158;stop-opacity:0.7" offset="0"></stop>
				<stop style="stop-color:#FE6158;stop-opacity:0.67" offset="0.11"></stop>
				<stop style="stop-color:#FC6058;stop-opacity:0.6" offset="0.27"></stop>
				<stop style="stop-color:#F95F58;stop-opacity:0.48" offset="0.46"></stop>
				<stop style="stop-color:#F45E58;stop-opacity:0.31" offset="0.68"></stop>
				<stop style="stop-color:#EF5D58;stop-opacity:0.1" offset="0.9"></stop>
				<stop style="stop-color:#EC5C58;stop-opacity:0" offset="1"></stop>
			</linearGradient>
			<path d="M160.4,128.6V52.7c0-5.1-2.7-9.8-7.1-12.3l-65.8-38c-4.4-2.5-9.8-2.5-14.2,0l-65.8,38c-4.4,2.5-7.1,7.2-7.1,12.3v75.9
				c0,5.1,2.7,9.8,7.1,12.3l65.8,38c4.4,2.5,9.8,2.5,14.2,0l65.8-38C157.7,138.4,160.4,133.7,160.4,128.6z" style="fill:none;stroke:url(#SVGID_00000069378704645797461720000002739104735637700011_);stroke-miterlimit:10;"></path>
			
				<linearGradient gradientTransform="matrix(1 0 0 -1 0 184)" y2="67.2" x2="81.47" y1="51.92" x1="81.47" gradientUnits="userSpaceOnUse" id="SVGID_00000163760970799340413120000004164791354418840737_">
				<stop style="stop-color:#DF7992" offset="0"></stop>
				<stop style="stop-color:#8640A0" offset="1"></stop>
			</linearGradient>
			
				<ellipse ry="7.4" rx="21" cy="124.4" cx="81.5" style="fill:none;stroke:url(#SVGID_00000163760970799340413120000004164791354418840737_);stroke-width:0.5;stroke-miterlimit:10;"></ellipse>
			
				<linearGradient gradientTransform="matrix(1 0 0 -1 0 184)" y2="66.175" x2="81.47" y1="53.905" x1="81.47" gradientUnits="userSpaceOnUse" id="SVGID_00000151517568112437204850000008109119296935957144_">
				<stop style="stop-color:#DF7992" offset="0"></stop>
				<stop style="stop-color:#8640A0" offset="1"></stop>
			</linearGradient>
			
				<ellipse ry="5.8" rx="18.2" cy="124" cx="81.5" style="fill:none;stroke:url(#SVGID_00000151517568112437204850000008109119296935957144_);stroke-width:0.75;stroke-miterlimit:10;"></ellipse>
			
				<linearGradient gradientTransform="matrix(1 0 0 -1 0 184)" y2="99.755" x2="111.41" y1="99.755" x1="53.18" gradientUnits="userSpaceOnUse" id="SVGID_00000085932153402336417890000009395988317296060572_">
				<stop style="stop-color:#C90061" offset="0"></stop>
				<stop style="stop-color:#310DA0" offset="1"></stop>
			</linearGradient>
			<path d="M81.8,43.8c-15.8,0-28.6,12.8-28.6,28.6
				c0,14.7,27.8,52.3,27.8,52.3l1.8,0.1c0,0,28.6-36.6,28.6-52.4S97.6,43.8,81.8,43.8z M81.8,93.3c-11.6,0-20-9.4-20-21
				s8.4-21,20-21c11.6,0.6,20.5,10.4,20,22C101.2,84.1,92.6,92.8,81.8,93.3L81.8,93.3z" style="fill:url(#SVGID_00000085932153402336417890000009395988317296060572_);"></path>
			
				<linearGradient gradientTransform="matrix(1 0 0 -1 0 184)" y2="99.82" x2="52.36" y1="99.82" x1="109.59" gradientUnits="userSpaceOnUse" id="SVGID_00000083082358904329161220000012747666798120244650_">
				<stop style="stop-color:#7E1FCC" offset="1.000000e-02"></stop>
				<stop style="stop-color:#FF445F" offset="1"></stop>
			</linearGradient>
			<path d="M81,43.7c-15.8,0-28.6,12.8-28.6,28.5
				c0,0,0,0,0,0.1c0,15.8,28.6,52.4,28.6,52.4s28.6-36.6,28.6-52.4C109.6,56.5,96.8,43.7,81,43.7L81,43.7z M81,93.3
				c-11.6,0-21-9.4-21-21s9.4-21,21-21s21,9.4,21,21l0,0C102,83.9,92.6,93.3,81,93.3z" style="fill:url(#SVGID_00000083082358904329161220000012747666798120244650_);"></path>
			
				<linearGradient gradientTransform="matrix(1 0 0 -1 0 184)" y2="111.795" x2="66.32" y1="111.795" x1="77.55" gradientUnits="userSpaceOnUse" id="SVGID_00000035494395461486506000000011740759819367823550_">
				<stop style="stop-color:#FFDA19" offset="0"></stop>
				<stop style="stop-color:#FF9C19" offset="1"></stop>
			</linearGradient>
			<path d="M79.8,53.1c-6.1,0-11.1,8.5-11.1,19.1
				s5,19.1,11.1,19.1h3.8V53.1H79.8z" style="fill:url(#SVGID_00000035494395461486506000000011740759819367823550_);"></path>
			
				<linearGradient gradientTransform="matrix(1 0 0 -1 0 184)" y2="111.795" x2="66.83" y1="111.795" x1="75.72" gradientUnits="userSpaceOnUse" id="SVGID_00000103980895409834958040000004621464432482204550_">
				<stop style="stop-color:#FFDA19" offset="0"></stop>
				<stop style="stop-color:#FF9C19" offset="1"></stop>
			</linearGradient>
			<path d="M69.5,72.2c0-10.5,5-19.1,11.1-19.1h-0.7c-6.1,0-11.1,8.5-11.1,19.1s5,19.1,11.1,19.1h0.7C74.4,91.3,69.5,82.7,69.5,72.2z" style="opacity:0.4;fill:url(#SVGID_00000103980895409834958040000004621464432482204550_);enable-background:new    ;"></path>
			
				<linearGradient gradientTransform="matrix(1 0 0 -1 0 184)" y2="111.79" x2="72.09" y1="111.79" x1="102.5" gradientUnits="userSpaceOnUse" id="SVGID_00000064348917133370161240000003102084516073270715_">
				<stop style="stop-color:#FFDA19" offset="0"></stop>
				<stop style="stop-color:#FFFF70" offset="1"></stop>
			</linearGradient>
			
				<ellipse ry="19.1" rx="11.1" cy="72.2" cx="83.7" style="fill:url(#SVGID_00000064348917133370161240000003102084516073270715_);"></ellipse>
			
				<linearGradient gradientTransform="matrix(1 0 0 -1 0 184)" y2="124.6" x2="78.53" y1="104.52" x1="78.53" gradientUnits="userSpaceOnUse" id="SVGID_00000166669837598950349130000007171070842834788772_">
				<stop style="stop-color:#FFDA19" offset="0"></stop>
				<stop style="stop-color:#FF9C19" offset="1"></stop>
			</linearGradient>
			<path d="M72.6,72.3c0-10.5,5-19.1,11.1-19.1c0.5,0,0.9,0.1,1.4,0.2c-0.6-0.2-1.3-0.3-2-0.3C77,53.1,72,61.7,72,72.2
				c0,9.7,4.2,17.7,9.7,18.9C76.5,89.5,72.6,81.7,72.6,72.3z" style="opacity:0.4;fill:url(#SVGID_00000166669837598950349130000007171070842834788772_);enable-background:new    ;"></path>
			
				<linearGradient gradientTransform="matrix(1 0 0 -1 0 184)" y2="124.6" x2="79.13" y1="104.52" x1="79.13" gradientUnits="userSpaceOnUse" id="SVGID_00000101093205468045230200000005941625803638665373_">
				<stop style="stop-color:#FFDA19" offset="0"></stop>
				<stop style="stop-color:#FFFF70" offset="1"></stop>
			</linearGradient>
			<path d="M73.2,72.3c0-10.5,5-19.1,11.1-19.1
				c0.5,0,0.9,0.1,1.4,0.2c-0.6-0.2-1.3-0.3-1.9-0.3c-6.1,0-11.1,8.5-11.1,19.1c0,9.7,4.2,17.7,9.7,18.9
				C77.1,89.5,73.2,81.7,73.2,72.3z" style="fill:url(#SVGID_00000101093205468045230200000005941625803638665373_);"></path>
			
				<linearGradient gradientTransform="matrix(1 0 0 -1 0 184)" y2="111.79" x2="76.37" y1="111.79" x1="94.66" gradientUnits="userSpaceOnUse" id="SVGID_00000087389168676596493560000011299393459861912455_">
				<stop style="stop-color:#FFDA19" offset="0"></stop>
				<stop style="stop-color:#FFD95A" offset="1"></stop>
			</linearGradient>
			
				<ellipse ry="14.1" rx="7.8" cy="72.2" cx="84.8" style="fill:url(#SVGID_00000087389168676596493560000011299393459861912455_);"></ellipse>
			
				<linearGradient gradientTransform="matrix(1 0 0 -1 0 184)" y2="109.145" x2="78.62" y1="109.145" x1="94.69" gradientUnits="userSpaceOnUse" id="SVGID_00000125586319192267697680000008143472947809189796_">
				<stop style="stop-color:#FFDA19" offset="0"></stop>
				<stop style="stop-color:#FFFF70" offset="1"></stop>
			</linearGradient>
			<path d="M92.9,72.7c0,7.8-3.5,14.1-7.8,14.1
				c-2.4,0-4.5-1.9-5.9-4.9c1.4,2.7,3.4,4.3,5.7,4.3c4.3,0,7.8-6.3,7.8-14.1c0-3.2-0.6-6.4-2-9.3C92.2,66,92.9,69.3,92.9,72.7z" style="fill:url(#SVGID_00000125586319192267697680000008143472947809189796_);"></path>
			
				<linearGradient gradientTransform="matrix(1 0 0 -1 0 184)" y2="111.81" x2="76.07" y1="111.81" x1="90.23" gradientUnits="userSpaceOnUse" id="SVGID_00000149360463169061851970000010473321728304668310_">
				<stop style="stop-color:#FFDA19" offset="0"></stop>
				<stop style="stop-color:#FF9C19" offset="1"></stop>
			</linearGradient>
			<path d="M88.7,74.8c0.1-1.3-0.6-2.5-1.8-3
				c1.1-0.6,1.7-1.7,1.5-2.9c0.1-1.7-1.1-3.2-2.7-3.7v-2l-0.5-0.3h-0.6v2l-0.8-0.2v-2.1l-0.5-0.3h-0.6v2.2l-1.4-0.4h-0.6v16h0.6
				l1.4-0.4V82h0.6l0.6-0.4v-2.2l0.8-0.2v2.2h0.6l0.5-0.3V79C87.6,78.5,88.9,76.8,88.7,74.8z M86.8,69.1c0,0.9-0.7,1.6-1.6,1.6
				c-0.1,0-0.2,0-0.3,0l-2.2-0.1v-3.7l2.2,0.3C85.9,67.3,86.7,68.1,86.8,69.1z M85.2,76.7l-2.5,0.4V73l2.4-0.1
				c0.9-0.1,1.6,0.6,1.7,1.5c0,0.1,0,0.2,0,0.3C86.9,75.7,86.2,76.6,85.2,76.7z" style="fill:url(#SVGID_00000149360463169061851970000010473321728304668310_);"></path>
			
				<linearGradient gradientTransform="matrix(1 0 0 -1 0 184)" y2="111.81" x2="77.7" y1="111.81" x1="91.87" gradientUnits="userSpaceOnUse" id="SVGID_00000090253824435042272630000015051394541008208815_">
				<stop style="stop-color:#FFDA19" offset="0"></stop>
				<stop style="stop-color:#FFFF70" offset="1"></stop>
			</linearGradient>
			<path d="M89.3,74.8c0.1-1.3-0.6-2.5-1.8-3
				c1.1-0.6,1.7-1.7,1.5-2.9c0.1-1.7-1.1-3.3-2.7-3.7v-2l-1-0.3v2l-0.8-0.2v-2.1l-1.1-0.3v2.2l-2-0.4v16l1.9-0.4V82l1.2-0.4v-2.2
				l0.8-0.2v2.2l1-0.3V79C88.1,78.5,89.4,76.8,89.3,74.8z M87.3,69.1c0,0.9-0.7,1.6-1.6,1.6c-0.1,0-0.2,0-0.3,0l-2.2-0.1v-3.7
				l2.2,0.3C86.5,67.3,87.3,68.1,87.3,69.1z M85.7,76.7l-2.5,0.4V73l2.4-0.1c0.9-0.1,1.6,0.6,1.7,1.5c0,0.1,0,0.2,0,0.3
				C87.4,75.7,86.7,76.6,85.7,76.7z" style="fill:url(#SVGID_00000090253824435042272630000015051394541008208815_);"></path>
			
				<linearGradient gradientTransform="matrix(1 0 0 -1 0 184)" y2="111.81" x2="78.46" y1="111.81" x1="89.61" gradientUnits="userSpaceOnUse" id="SVGID_00000012448119682362938490000012897628041569961124_">
				<stop style="stop-color:#FFDA19" offset="0"></stop>
				<stop style="stop-color:#FFFF70" offset="1"></stop>
			</linearGradient>
			<path d="M87,68.1c0.3,0.3,0.5,0.8,0.5,1.2
				c0,1.1-0.8,1.6-1.9,1.6l-2.5-0.1v-0.2l2.3,0.1c0.9,0.1,1.7-0.5,1.8-1.3c0-0.1,0-0.2,0-0.3C87.3,68.8,87.2,68.4,87,68.1z
				 M87.5,74.9c0-0.5-0.2-1-0.5-1.4c0.2,0.3,0.3,0.7,0.3,1.1c0.1,1-0.6,1.9-1.7,2l-2.5,0.4v0.3l2.7-0.4
				C86.9,76.8,87.6,75.9,87.5,74.9L87.5,74.9z M83.4,79.6h-0.2V82l0.2-0.1L83.4,79.6z M85.4,79.2h-0.2v2.2l0.2-0.1L85.4,79.2z
				 M84.4,64.8V65l1,0.2v-2l0.8,0.2v-0.2l-1-0.3v2L84.4,64.8z M81.5,64.4l2,0.4v-2.1l0.9,0.3v-0.2l-1.1-0.3v2.2l-2-0.4v16l0.2-0.1
				L81.5,64.4z" style="fill:url(#SVGID_00000012448119682362938490000012897628041569961124_);"></path>
			
				<linearGradient gradientTransform="matrix(1 0 0 -1 0 184)" y2="111.85" x2="92.61" y1="111.85" x1="84.24" gradientUnits="userSpaceOnUse" id="SVGID_00000008147383882997409240000002044968144908721599_">
				<stop style="stop-color:#FFDA19" offset="0"></stop>
				<stop style="stop-color:#FF9C19" offset="1"></stop>
			</linearGradient>
			<path d="M84.8,58.2c-0.2,0-0.4,0-0.5,0
				c4.1,0.5,7.3,6.6,7.3,14s-3.2,13.5-7.3,14c0.2,0,0.4,0,0.5,0c4.3,0,7.8-6.3,7.8-14.1S89.1,58.2,84.8,58.2z" style="fill:url(#SVGID_00000008147383882997409240000002044968144908721599_);"></path>
			
				<linearGradient gradientTransform="matrix(1 0 0 -1 0 184)" y2="111.795" x2="61.99" y1="111.795" x1="79.58" gradientUnits="userSpaceOnUse" id="SVGID_00000109738360914216714970000000396067647104346764_">
				<stop style="stop-color:#FFDA19" offset="0"></stop>
				<stop style="stop-color:#FF9C19" offset="1"></stop>
			</linearGradient>
			<path d="M73.3,65.4h-3.8c0.1-0.6,0.3-1.2,0.5-1.8h3.8C73.7,64.2,73.5,64.8,73.3,65.4z M75.3,59.7h-3.9c-0.3,0.6-0.6,1.2-0.8,1.8h3.8
				C74.8,60.9,75,60.3,75.3,59.7L75.3,59.7z M83.7,53.1h-3.9c-1,0-2,0.2-2.9,0.7h3.8C81.7,53.4,82.7,53.1,83.7,53.1L83.7,53.1z
				 M72.6,72.2c0-0.3,0-0.6,0-0.9h-3.8c0,0.3,0,0.6,0,0.9s0,0.6,0,0.9h3.8C72.6,72.8,72.6,72.5,72.6,72.2z M78,55.8h-3.8
				c-0.5,0.6-1,1.2-1.5,1.8h3.8C77,57,77.5,56.4,78,55.8z M73,67.4h-3.9C69,68,69,68.6,68.9,69.3h3.8C72.8,68.6,72.9,68,73,67.4z
				 M77,90.6c0.9,0.4,1.9,0.7,2.9,0.7h3.8c-1,0-2-0.2-2.9-0.7H77z M76.6,86.7h-3.9c0.4,0.7,0.9,1.3,1.5,1.8H78
				C77.5,88,77,87.4,76.6,86.7L76.6,86.7z M73.3,79h-3.8c0.1,0.6,0.3,1.2,0.5,1.8h3.8C73.7,80.2,73.5,79.6,73.3,79z M74.5,82.9h-3.8
				c0.2,0.6,0.5,1.2,0.8,1.8h3.8C75,84.1,74.8,83.5,74.5,82.9L74.5,82.9z M72.8,75.1h-3.8c0,0.6,0.1,1.2,0.2,1.8H73
				C72.9,76.4,72.8,75.8,72.8,75.1L72.8,75.1z" style="opacity:0.4;fill:url(#SVGID_00000109738360914216714970000000396067647104346764_);enable-background:new    ;"></path>
			<path d="M50.7,93.3l2.2,1.2c0.3,0.2,0.4,0.5,0.2,0.8l-2.9,5c-0.2,0.3-0.5,0.4-0.8,0.2l-2.2-1.2
				c-0.3-0.2-0.4-0.5-0.2-0.8l2.9-5C50.1,93.2,50.4,93.1,50.7,93.3z" class="st18"></path>
			<path d="M101,144.2c-0.8-0.8-2-0.8-3-1c-0.4-0.1-0.8-0.1-1.3-0.2c-0.2,0-0.4,0-0.5,0c-0.4,0.2-0.5,1-0.4,1.4
				c0.1,0.3,0.3,0.5,0.6,0.6c0.4,0.2,0.8,0.3,1.3,0.3c0.5,0,0.9,0.1,1.3,0.3c0.4,0.4,1,0.6,1.6,0.6c0.6-0.1,1.1-0.7,1-1.3
				c0-0.2-0.1-0.4-0.3-0.6C101.2,144.4,101.1,144.3,101,144.2z" class="st19"></path>
			<path d="M94.2,144.8c-0.1-0.2-0.3-0.4-0.5-0.5c-0.3-0.1-0.7-0.2-1.1-0.2c-0.4,0-0.7,0-1.1,0.1
				c-0.3,0.1-0.5,0.1-0.8,0.1c-0.4,0-0.9-0.1-1.3-0.2c-0.2,0-0.5,0-0.7,0.1c-0.5,0.3-0.7,0.9-0.4,1.5c0.1,0.3,0.4,0.5,0.6,0.6
				c0.4,0.2,0.9,0.3,1.4,0.3c0.5,0,0.9,0,1.4,0.2c0.8,0.4,1.6,0.9,2.4,0.2c0.2-0.2,0.3-0.5,0.3-0.7
				C94.5,145.7,94.4,145.2,94.2,144.8z" class="st19"></path>
			<path d="M78.9,95.8c0.1,0,0.2,0,0.2,0c0.5,0.5,0.9,1.1,1.4,1.6c0.2,0.2,1.1,1.1,1.2,1.2c0.2,0.2,0.3,0.4,0.3,0.6
				c0,0.5,0,0.9,0,1.4c-0.1,0.1-0.2,0.2-0.3,0.3l0,0l0,0c-0.2,0.1-0.4,0.3-0.5,0.5c-0.1,0.2-0.3,0.1-0.5,0.1c-0.6-1-1.5-1.5-1.9-2.6
				c-0.1-0.1-0.1-0.3-0.1-0.4c0.1-0.2,0.3-0.4,0.5-0.6c0.2-0.1,0.4-0.2,0.6-0.3c0.1,0-0.9-1.6-0.9-1.7
				C78.9,95.9,78.9,95.8,78.9,95.8z" class="st20"></path>
			<path d="M101.7,117.3c-0.1-0.6-6.2-0.9-7.4-0.7s-1.8-2.4-2.2-0.9c-0.5,3.3-0.8,6.7-0.8,10c0,2.8,0,5.6,0.1,8.5
				c0,3.2,0,5.4,0.1,8.5c-0.1,0.9,0.1,1.7,0.7,2.4c0.6,0.4,1.5,0.3,2-0.2c0.5-0.6,2.8-20.4,2.8-20.4h0.4c0,0,1,19.5,1.3,20
				c0.6,1,2.3,1.2,2.7,0.2C101.7,143.4,102,118.6,101.7,117.3z" class="st21"></path>
			<path d="M102.7,103.8c-0.1,3.7-1.2,7.4-0.8,11.1c0.2,1.9,0.7,4.2-1.2,5.3c-0.8,0.4-1.7,0.7-2.6,0.8
				c-1.1,0.2-2.2,0.3-3.3,0.2c-0.8-0.1-2.4-0.3-2.8-1.1c-0.2-0.7-0.4-1.4-0.3-2.2c0-0.7,0.2-12.5,0.5-13.5c0.8-2.2,3.6-3.4,5.6-4.1
				c1.4-0.4,2.7-0.8,3.9,0.3C102.4,101.5,102.8,102.6,102.7,103.8z" class="st22"></path>
			<path d="M94.3,104.3c-0.3-0.9-1.2-1.5-2.1-1.3l-3,0.8c-1.3,0.5-2.7,0.5-4,0c-1.2-0.8-2.2-1.9-2.9-3.1
				c-0.4-0.4-1-0.6-1.5-0.3c-0.5,0.3-0.7,0.9-0.5,1.4c0.8,2.1,1.9,4.2,4,5.3c2.8,1.4,5.8,0.7,8.6,0C94,106.6,94.7,105.4,94.3,104.3z" class="st22"></path>
			<path d="M100.7,95.3c0-1.3-0.7-2.4-1.7-3.2c-1.3-0.7-2.8-0.8-4.2-0.1c-0.4,0.2-0.6,1.1-0.7,1.5
				c-0.3,0.8-0.5,1.5-0.5,2.3c-0.1,0.9,0,1.8,0.2,2.7c0.1,0.5,0.3,0.9,0.8,1.2c0.3,0.1,0.7,0.2,1,0.2c-0.1,0.5,0,1.1,0.1,1.6
				c0.4,1,3.7,0.6,3.7-0.6c0-0.5-0.1-0.9-0.1-2.3c0.4-0.3,0.7-0.6,1-1C100.6,96.9,100.8,96.1,100.7,95.3z" class="st20"></path>
			<path d="M94.7,93.1l-0.2-0.2c-0.3-0.1-0.5-0.4-0.6-0.7c0-0.3,0-0.5,0.2-0.7c0.2-0.2,0.4-0.3,0.6-0.4
				c0.6-0.3,1.2-0.5,1.9-0.7c1.6-0.2,3.2,0.4,4.3,1.6l0,0c2,2.4,1,6.8-2.4,7.3c-0.4,0.1-0.8,0-1.2-0.1c-0.4-0.2-0.6-0.6-0.7-1
				c-0.1-0.5,0-0.9,0.2-1.4c0.1-0.3,0-0.6-0.2-0.8c-0.6-0.5-0.9,0.6-1.4,0.6c-0.2,0-0.3-0.2-0.3-0.3c0-0.2,0-0.3,0-0.5
				c0.1-0.4,0.1-0.9,0.2-1.4c0.1-0.3,0-0.6-0.1-0.9C94.9,93.3,94.8,93.2,94.7,93.1z" class="st23"></path>
			<path d="M115.8,71.7c0.1-0.7,0.1-1.3-0.5-1.6c-0.4-0.2-0.4-0.1-0.5,0s-0.9,1.2-1,1.3
				C111,73.3,115.2,75.7,115.8,71.7z" class="st20"></path>
			<path d="M114.8,71.7c-1.6-1,2.2-4.4,2.1-12.4c0-1.4-0.5-4.8,1.8-4.9c1.8,0,2,2.6,1.9,3.8
				C120.5,63.7,117,73,114.8,71.7z" class="st20"></path>
			<path d="M115.8,71.7c0.1-0.7,0.1-1.3-0.5-1.6c-0.4-0.2-0.4-0.1-0.5,0s-0.9,1.2-1,1.3
				C111,73.3,115.2,75.7,115.8,71.7z" class="st20"></path>
			<path d="M114.8,71.7c-1.6-1,2.2-4.4,2.1-12.4c0-1.4-0.5-4.8,1.8-4.9c1.8,0,2,2.6,1.9,3.8
				C120.5,63.7,117,73,114.8,71.7z" class="st24"></path>
			<path d="M112.6,96.2c1-1,2-0.8,2.6-1.3c0.3-0.2,0.4-0.5,0.7-0.7c2.1-1.8,4.5,0,3.4,2c-0.6,1.2-1.9,0.2-3.6,1.5
				c-0.6,0.5-1.9,0.9-2.6,0.4C112.8,97.9,112.1,96.7,112.6,96.2z" class="st19"></path>
			<path d="M130.4,89c-0.1,1.4-0.8,2.3-0.2,3.1c0.4,0.5,2.1-0.2,2.4-0.6c0.2-0.6,0.4-1.3,0.3-1.9
				c-0.1-1.4,0.7-1.8,0.4-2.7c-0.3-0.6-0.8-1-1.5-1.1C129.9,85.8,130.4,88.7,130.4,89z" class="st19"></path>
			<path d="M122.4,70.5c0.2,7.1,1.8,13.5,8.7,15.4c0.6,0.2,1,0.8,0.9,1.4l0,0c-0.1,0.7-0.7,1.1-1.4,1.1
				c-9.1-1-12.4-9.1-13.3-17.9L122.4,70.5z" class="st25"></path>
			<path d="M117.4,95.9L117.4,95.9c-0.8,0-1.4-0.7-1.4-1.4c-0.4-7.9,2.8-19.2,6.1-24.7l4.7,1.8
				c1,4.3-7.2,11.2-7.9,22.9C118.9,95.3,118.2,95.9,117.4,95.9z" class="st26"></path>
			<path d="M127.2,70.3c0.1,1-0.1,1.8-1,2.2c-0.7,0.3-5.4,1.2-8.3-1c-0.4-0.3-0.4-0.9-0.4-1.3c0-1.1,0.2-11.7,0.5-14.2
				c0-0.5,0.2-0.9,0.5-1.3c0.5-0.3,1.1-0.4,1.7-0.2c1,0.1,2,0.2,2.9,0.5c1.1,0.4,2.1,1,3,1.8C126.7,57.5,127,69,127.2,70.3z" class="st27"></path>
			<path d="M123.8,55.3c0,2-3.8,1.9-3.7,0c0.2-2.6,0.3-2.9,1.6-3.3c0.3-0.1,0.7-0.2,1.1-0.2c1.3,0,0.8,0.7,0.7,1.1
				C123.3,54.4,123.8,54.6,123.8,55.3z" class="st28"></path>
			<path d="M118.4,49.5c-0.5,2.3,0.2,5.3,1.7,5.7s3.2-1.2,3.7-3.5s-0.3-4.5-1.8-4.8S118.9,47.2,118.4,49.5z" class="st20"></path>
			<path d="M121.5,49.6L121.5,49.6c0.1,0.1,0.1,0.2,0.2,0.4c0.1,0.4,0.1,0.8,0.1,1.2c0,0.2,0.1,0.7,0.4,0.6
				c0.2,0,0.2-0.3,0.3-0.4c0.1-0.2,0.4-0.2,0.6-0.1c0.3,0.1,0.2,0.5,0.2,0.7s-0.1,0.4-0.2,0.5c-0.1,0.2-0.1,0.4,0,0.5
				c0.1,0.2,0.4,0.5,0.7,0.3c0.6-0.5,1-1.1,1.2-1.8c0.4-1,0.4-2.2-0.1-3.2c-0.2-0.2-0.4-0.5-0.6-0.6c-0.1,0-0.3-0.2-0.3-0.2
				c-0.4-0.8-1.2-1.2-2.1-1.3c-1.4-0.1-2.7,0.6-3.4,1.7c-0.3,0.5-0.6,1.5-0.1,1.8c0.2,0.1,0.5,0.2,0.7,0.2c0.3,0,0.6,0,0.8,0
				c0.3,0,0.5-0.1,0.8-0.3C121,49.7,121.2,49.3,121.5,49.6z" class="st29"></path>
			<path d="M133.2,61.5c-0.3-0.2-0.6-0.3-0.9-0.4l0,0c-0.6-0.2-1.3-0.2-1.9-0.1l0,0c-1.1,0.2-2.1,0.5-3,1.1
				c-4.5,2.6-8.1,8.9-8.1,14c0,0.9,0.1,1.7,0.4,2.6l0,0c0.2,0.6,0.4,1.1,0.8,1.6c0.1,0.1,0.2,0.3,0.3,0.4l0,0
				c0.3,0.3,0.6,0.5,0.9,0.7l-1.1-0.7l0,0l-0.3-0.2l0,0c-0.4-0.3-0.8-0.6-1.2-1c-0.8-1.2-1.2-2.7-1.2-4.2c0-5.2,3.6-11.4,8.1-14
				c1.2-0.7,2.5-1.1,3.9-1.1l0,0c0.6,0,1.2,0.2,1.7,0.4C131.7,60.7,131.7,60.7,133.2,61.5z" class="st30"></path>
			<path d="M127.4,62.1c-4.5,2.6-8.1,8.9-8.1,14s3.7,7.2,8.2,4.6s8.1-8.9,8.1-14S131.9,59.5,127.4,62.1z" class="st31"></path>
			<path d="M127.3,80.5c4.4-2.5,7.9-8.7,7.9-13.7c0-3.4-1.6-5.4-4.2-5.4c-1.2,0.1-2.4,0.4-3.5,1.1
				c-4.4,2.5-7.9,8.7-7.9,13.7c0,3.3,1.6,5.4,4.2,5.4l0,0C125,81.5,126.2,81.2,127.3,80.5z M134.6,66.8c-0.3,5.3-3.1,10.2-7.6,13.2
				c-1,0.6-2,0.9-3.2,1c-2.2,0-3.5-1.8-3.5-4.8c0.3-5.3,3.1-10.2,7.6-13.2c0.9-0.6,2-0.9,3.1-1C133.2,62,134.5,63.8,134.6,66.8z" class="st30"></path>
			<path d="M127,79.9c4.5-2.9,7.3-7.8,7.6-13.2c0-3-1.3-4.8-3.5-4.8c-1.1,0.1-2.2,0.4-3.2,1c-4.5,2.9-7.3,7.8-7.6,13.2
				c0,3,1.3,4.8,3.5,4.8l0,0C125,80.9,126.1,80.5,127,79.9z M134,66.8c-0.3,5.1-3,9.8-7.3,12.6c-0.9,0.5-1.8,0.8-2.8,0.9
				c-1.8,0-2.9-1.5-2.9-4.1c0.3-5.1,3-9.8,7.3-12.6c0.8-0.5,1.8-0.9,2.8-0.9c1.7,0,2.8,1.6,2.8,4.1H134z" class="st30"></path>
			<path d="M127.4,78.1c-0.2,0-0.3-0.2-0.3-0.3V63.7c0-0.2,0.2-0.3,0.4-0.3c0.1,0,0.3,0.1,0.3,0.3v14.1
				C127.7,77.9,127.6,78.1,127.4,78.1z" class="st30"></path>
			<path d="M129.4,76.1c-0.2,0-0.3-0.1-0.3-0.3l0,0V62.6c0-0.2,0.2-0.3,0.4-0.3c0.1,0,0.3,0.1,0.3,0.3v13.2
				C129.7,75.9,129.6,76.1,129.4,76.1z" class="st30"></path>
			<path d="M123.9,79.1c-0.2,0-0.3-0.1-0.3-0.3l0,0V67c0-0.2,0.1-0.3,0.3-0.3l0,0c0.2,0,0.3,0.1,0.3,0.3l0,0v11.8
				C124.3,78.9,124.1,79.1,123.9,79.1L123.9,79.1z" class="st30"></path>
			<path d="M122.3,76.2c-0.1,0-0.1,0-0.2,0c-0.2-0.1-0.2-0.3-0.1-0.4c0,0,0,0,0,0l1.6-3c0.1-0.2,0.3-0.2,0.5-0.1
				c0.2,0.1,0.2,0.3,0.1,0.5l-1.6,2.9C122.5,76.2,122.4,76.2,122.3,76.2z" class="st30"></path>
			<path d="M131.1,73.5c-0.2,0-0.3-0.1-0.3-0.3l0,0v-3.9l-1.5-0.9c-0.2-0.1-0.2-0.3-0.1-0.5c0.1-0.2,0.3-0.2,0.5-0.1
				l1.7,1c0.1,0.1,0.2,0.2,0.2,0.3v4.1C131.4,73.3,131.3,73.5,131.1,73.5C131.1,73.5,131.1,73.5,131.1,73.5z" class="st30"></path>
			<path d="M125.4,76.6c-0.2,0-0.3-0.1-0.3-0.3v-5.9c0-0.1,0-0.1,0-0.2l2-3.7c0.1-0.2,0.3-0.2,0.4-0.1c0,0,0,0,0,0
				c0.2,0.1,0.2,0.3,0.1,0.4l-2,3.6v5.8C125.6,76.4,125.5,76.5,125.4,76.6z" class="st30"></path>
			<path d="M122.4,76c0-0.2-0.1-0.2-0.2-0.2c-0.1,0.1-0.2,0.3-0.2,0.4c0,0.2,0.1,0.2,0.2,0.1
				C122.3,76.3,122.4,76.2,122.4,76z" class="st30"></path>
			<path d="M122.3,76.8c0.2-0.2,0.4-0.4,0.4-0.7c0-0.2-0.1-0.4-0.2-0.4c-0.2-0.1-0.3-0.1-0.5,0
				c-0.2,0.2-0.4,0.4-0.4,0.7c0,0.2,0.1,0.4,0.2,0.4c0.1,0,0.1,0.1,0.2,0.1C122.1,76.8,122.2,76.8,122.3,76.8z M122.1,76L122.1,76z" class="st30"></path>
			<path d="M122.3,73.5c-0.1,0-0.1,0-0.2,0c-0.2-0.1-0.3-0.3-0.2-0.4c0,0,0,0,0-0.1l1.6-3c0.1-0.2,0.3-0.2,0.5-0.1
				c0.2,0.1,0.2,0.3,0.1,0.5l-1.6,3C122.5,73.4,122.4,73.5,122.3,73.5z" class="st30"></path>
			<path d="M122,74.3c-0.1,0-0.2,0-0.2-0.1c-0.2-0.1-0.3-0.3-0.3-0.5c0-0.3,0.2-0.7,0.5-0.8c0.2-0.1,0.4-0.1,0.6,0
				c0.2,0.1,0.3,0.3,0.3,0.5c0,0.3-0.2,0.7-0.5,0.8C122.2,74.3,122.1,74.3,122,74.3z" class="st30"></path>
			<path d="M125.2,77.3c-0.1,0-0.2,0-0.2-0.1c-0.2-0.1-0.3-0.3-0.3-0.5c0-0.3,0.2-0.6,0.4-0.8c0.2-0.1,0.4-0.1,0.5,0
				c0.2,0.1,0.3,0.3,0.3,0.5c0,0.3-0.2,0.6-0.4,0.8C125.4,77.3,125.3,77.3,125.2,77.3z" class="st30"></path>
			<path d="M127.6,78.7c0.3-0.2,0.4-0.5,0.4-0.8c0-0.2-0.1-0.4-0.2-0.5c-0.2-0.1-0.4-0.1-0.5,0
				c-0.3,0.2-0.4,0.5-0.4,0.8c0,0.2,0.1,0.4,0.2,0.5c0.1,0,0.1,0.1,0.2,0.1C127.4,78.8,127.5,78.8,127.6,78.7z M127.3,77.9
				L127.3,77.9z" class="st30"></path>
			<path d="M131.3,73.3c0-0.2-0.1-0.3-0.3-0.2c-0.2,0.1-0.3,0.3-0.3,0.5c0,0.2,0.1,0.3,0.3,0.2
				C131.2,73.6,131.3,73.5,131.3,73.3z" class="st30"></path>
			<path d="M131.2,74c0.3-0.2,0.4-0.5,0.4-0.8c0-0.2-0.1-0.4-0.2-0.5c-0.2-0.1-0.4-0.1-0.5,0c-0.3,0.2-0.4,0.5-0.4,0.8
				c0,0.2,0.1,0.4,0.3,0.5c0.1,0,0.1,0.1,0.2,0.1C131.1,74.1,131.2,74,131.2,74z M131,73.2L131,73.2z" class="st30"></path>
			<path d="M123.8,79.9c-0.1,0-0.2,0-0.2-0.1c-0.2-0.1-0.3-0.3-0.3-0.5c0-0.3,0.2-0.6,0.5-0.8c0.2-0.1,0.4-0.1,0.5,0
				c0.2,0.1,0.3,0.3,0.3,0.5c0,0.3-0.2,0.6-0.4,0.8C124,79.9,123.9,79.9,123.8,79.9z" class="st30"></path>
			<path d="M129.6,75.9c0-0.2-0.1-0.2-0.2-0.1c-0.1,0.1-0.2,0.3-0.2,0.4c0,0.2,0.1,0.2,0.2,0.2
				C129.5,76.2,129.6,76.1,129.6,75.9z" class="st30"></path>
			<path d="M129.6,76.6c0.2-0.2,0.4-0.4,0.4-0.7c0-0.2-0.1-0.4-0.2-0.4c-0.2-0.1-0.3-0.1-0.5,0
				c-0.2,0.2-0.4,0.4-0.4,0.7c0,0.2,0.1,0.4,0.2,0.5c0.1,0,0.1,0,0.2,0C129.4,76.6,129.5,76.6,129.6,76.6z M129.3,75.9L129.3,75.9z" class="st30"></path>
			<path d="M132.6,69.6c-0.2,0-0.3-0.1-0.3-0.3v-6.6c0-0.2,0.2-0.3,0.4-0.3c0.1,0,0.3,0.1,0.3,0.3v6.6
				C132.9,69.5,132.8,69.6,132.6,69.6z" class="st30"></path>
			<path d="M132.4,70.4c-0.1,0-0.2,0-0.2-0.1c-0.2-0.1-0.3-0.3-0.3-0.5c0-0.3,0.2-0.6,0.4-0.8c0.2-0.1,0.4-0.1,0.6,0
				c0.2,0.1,0.3,0.3,0.3,0.5c0,0.3-0.2,0.6-0.5,0.8C132.7,70.4,132.5,70.4,132.4,70.4z" class="st30"></path>
			<path d="M127.6,74.3c0-0.2,0-0.5-0.1-0.7c0-0.4-0.2-0.9-0.5-1.2c-0.1-0.1-0.3-0.1-0.4-0.2c-0.1,0-0.3,0-0.4,0
				c0,0-0.1,0.1-0.1,0.2l-0.3,0.8c-0.1,0.3-0.2,0.5-0.3,0.7c-0.3,0.3-0.5,0.8-0.6,1.2c0,0.1,0,0.2,0,0.2c0,0.2,0.3,0.1,0.4,0.1
				c0,0,0.1,0,0.1,0c0,0,0,0.1,0,0.2c-0.1,0.1-0.1,0.2-0.2,0.3c-0.1,0.4,0.5,0.3,0.8,0.3c0.5-0.1,0.9-0.3,1.2-0.7
				C127.5,75.2,127.6,74.8,127.6,74.3z" class="st20"></path>
			<path d="M128,72.7c-0.2,0.7-0.7,1.4-1.4,1.2c-0.5-0.2-0.8-0.7-0.7-1.2c0.4-3.8,0-7.5-1.2-11.1
				c-0.5-1.4-2-4.4,0.1-5.2c1.7-0.6,2.7,1.8,3,3C129.1,63.7,129.1,68.3,128,72.7z" class="st20"></path>
			<path d="M127.6,74.3c0-0.2,0-0.5-0.1-0.7c0-0.4-0.2-0.9-0.5-1.2c-0.1-0.1-0.3-0.1-0.4-0.2c-0.1,0-0.3,0-0.4,0
				c0,0-0.1,0.1-0.1,0.2l-0.3,0.8c-0.1,0.3-0.2,0.5-0.3,0.7c-0.3,0.3-0.5,0.8-0.6,1.2c0,0.1,0,0.2,0,0.2c0,0.2,0.3,0.1,0.4,0.1
				c0,0,0.1,0,0.1,0c0,0,0,0.1,0,0.2c-0.1,0.1-0.1,0.2-0.2,0.3c-0.1,0.4,0.5,0.3,0.8,0.3c0.5-0.1,0.9-0.3,1.2-0.7
				C127.5,75.2,127.6,74.8,127.6,74.3z" class="st20"></path>
			<path d="M128,72.7c-0.2,0.7-0.7,1.4-1.4,1.2c-0.5-0.2-0.8-0.7-0.7-1.2c0.4-3.8,0-7.5-1.2-11.1
				c-0.5-1.4-2-4.4,0.1-5.2c1.7-0.6,2.7,1.8,3,3C129.1,63.7,129.1,68.3,128,72.7z" class="st27"></path>
			<path d="M47.6,95.6c0.3-0.1,2-0.8,2.1-0.1c0,0.3-0.5,0.4-0.7,0.4c-0.2,0-0.3,0.1-0.5,0.2c-0.2,0.2,0.5,0.5,0.7,0.5
				c0.4,0,0.8,0.1,1.1,0.3c0.2,0.2,0.2,0.7,0.1,1.1c-0.1,0.5-0.6,0.7-1,0.6c-1.2-0.3-2.4-0.8-3.5-1.3c-0.1-0.2-0.2-0.4-0.2-0.7
				C45.5,95.9,47.3,95.6,47.6,95.6z" class="st20"></path>
			<path d="M46.4,95.7c-0.6-0.1-4-1-4.6-2.2c-0.5-1-0.9-3.7-1.5-4.9c-0.3-0.7-1-1.2-1.8-1c-1.2,0.3-1,1.6-1,2.5
				c0.1,1.2,0.5,2.3,1,3.4c0.5,1.2,1.4,2.2,2.5,2.9c1.4,0.9,4.5,1.1,5.2,1.1c0.4,0,0.8-0.3,0.9-0.8C47.1,96.3,46.9,95.9,46.4,95.7z" class="st31"></path>
			<path d="M33.7,135.4c0,0.2-0.1,0.4-0.3,0.6c-0.2,0.1-0.4,0.2-0.6,0.2c-0.5,0-0.9-0.3-1.1-0.7
				c-0.3-0.7-0.4-1.5-0.3-2.2c0-0.9,0-1.8,0.1-2.7c0.3-1,1.2-0.9,2-0.6C34.1,130.2,33.9,134.1,33.7,135.4z" class="st19"></path>
			<path d="M38.9,129.4c0.4,0.1,0.8,0.2,1.1,0.4c0.8,0.3,1.6,0.7,2.4,1c0.6,0.2,1.8,0.6,1.5,1.5
				c-0.2,0.4-0.6,0.7-1,0.8c-0.7,0.2-1.5,0.1-2.2-0.4c-0.6-0.4-1.4-0.7-2.1-0.8c-0.7-0.1-1.1-0.4-1-1.1S38.1,129.4,38.9,129.4z" class="st19"></path>
			<path d="M40.5,102.5c0,0-4.8-0.2-6-0.1c-1.5,0.2-2.3,0.3-2.4,0.5c-1.2,2.6-1.1,6.9-1.1,8.7c0,2.7,0.4,19.4,0.9,19.9
				c0.3,0.4,0.9,0.4,1.2,0.1c0.1-0.1,0.2-0.3,0.3-0.5c0.2-0.6,1.9-15.5,3-23.1c0.4,7,1.4,21.9,1.5,22.2c0.5,0.9,1.5,0.7,1.8-0.2
				C40.1,129,41.7,108.6,40.5,102.5z" class="st23"></path>
			<path d="M30.9,89.9c0-0.5,0-0.9,0-1.4c0-0.9,0-1.9,0.1-2.8c0.2-1.1,0.6-2.2,1.2-3.2c0.1-0.2,0.2-0.3,0.3-0.4
				c0.3,0.1,0.7-0.1,1,0.1s0.7,1,0.9,1.4c0.5,1.1,0.6,2.4,0.4,3.6c-0.1,0.4-0.3,0.8-0.5,1.2c-0.2,0.5-0.4,1-0.7,1.5
				c-0.4,0.6-0.9,1-1.6,1.2c-0.4,0.1-0.7,0-1-0.2C30.9,90.6,30.8,90.3,30.9,89.9L30.9,89.9z" class="st19"></path>
			<path d="M37.5,87.5L37.5,87.5C37.4,87.4,37.3,87.5,37.5,87.5z" class="st32"></path>
			<path d="M30.3,91.4c0,1.2,0.2,2.3,0.7,3.4c0.6,1.4,1.1,2.8,1.5,4.3c-0.1,1.3-0.2,2.7-0.5,4c1.1,1.1,2.6,1.7,4.1,1.8
				c2.9,0.1,4-0.9,4.2-1.3s0.1-0.2,0-1.6c-0.7-5.7,2.1-5.9,1.1-8.9c-0.2-0.5-0.5-1-0.7-1.5c-0.2-0.4-0.3-0.8-0.4-1.2
				c-0.2-1-0.4-2.2-1.5-2.7c-0.7-0.3-1.5-0.3-2.3-0.2c-1.6,0.2-3.2,0.6-4.7,1.4c-0.6,0.3-1.1,0.8-1.4,1.4
				C30.5,90.7,30.4,91,30.3,91.4z" class="st31"></path>
			<path d="M30.2,109.5c0-0.3,0-0.5,0-0.8c0-0.5,0.1-1,0.4-1.3c0.1-0.1,0.3-0.2,0.5-0.2c0.1,0,0.4-0.1,0.4,0
				c0,0,0.1,0.1,0.1,0.2c0.1,0.3,0.3,0.6,0.4,0.8c0.1,0.3,0.2,0.5,0.4,0.8c0.4,0.3,0.6,0.7,0.8,1.2c0,0.1,0,0.2,0,0.2
				c0,0.2-0.3,0.2-0.4,0.2s-0.1,0-0.1,0s0,0.1,0,0.2c0.1,0.1,0.2,0.2,0.2,0.3c0.1,0.5-0.5,0.4-0.8,0.4c-0.5,0-1-0.2-1.4-0.6
				C30.4,110.4,30.2,110,30.2,109.5z" class="st20"></path>
			<path d="M29.7,107.4c0.2,0.8,0.8,1.5,1.5,1.2c0.5-0.2,0.7-0.8,0.7-1.4c-0.6-4-0.4-8.1,0.6-12.1
				c0.4-1.5,1.7-4.9-0.4-5.6c-1.7-0.6-2.5,2.1-2.9,3.4C28.1,97.7,28.3,102.7,29.7,107.4z" class="st31"></path>
			<path d="M33.9,88.3c0,2.2,4,2,3.9,0c-0.2-2.8-0.4-3.1-1.7-3.5c-0.4-0.1-0.7-0.2-1.1-0.2c-1.4,0-0.8,0.7-0.8,1.2
				C34.4,87.3,33.9,87.6,33.9,88.3z" class="st28"></path>
			<path d="M39.7,82.2c0.6,2.5-0.2,5.7-1.8,6.1s-4.2-1.1-4.8-3.6s1.1-5,2.7-5.4S39.2,79.7,39.7,82.2z" class="st20"></path>
			<path d="M40.2,83c0,0.1,0,0.2-0.1,0.3c-0.1,0.1-0.3,0.1-0.4,0.1c-0.5-0.1-1-0.3-1.5-0.6c-0.2-0.1-0.8-0.4-1.1-0.3
				s-0.1,0.7-0.1,0.9c-0.1,0.3-0.3,0.6-0.6,0.8c-0.3,0.1-0.5,0.3-0.8,0.4c-0.3,0.1-0.5,0.4-0.6,0.6c0,0.1,0,0.3,0,0.4
				c-0.6-0.7-0.3-1.2-1-1.2s-0.8,0.7-0.5,1.4c0.1,0.1,0.2,0.6,0.3,0.8c-1-0.6-1.7-1.7-1.9-2.9c-0.1-0.6-0.1-1.2,0.1-1.8
				c0.1-0.3,0.2-0.6,0.4-0.8c0.1-0.1,0.2-0.3,0.3-0.4c0.1-0.1,0.3-0.2,0.3-0.3s0.5-1.3,3-1.3c0.9,0,1.8,0.3,2.6,0.8
				c0.5,0.3,0.9,0.7,1.2,1.2C40.2,81.7,40.3,82.4,40.2,83z" class="st19"></path>
			<path d="M50.7,93.2l2,1.2c0.3,0.2,0.4,0.5,0.2,0.8l-2.8,4.9c-0.2,0.3-0.5,0.4-0.8,0.2l-2-1.2
				c-0.3-0.2-0.4-0.5-0.2-0.8l2.8-4.9C50.1,93.2,50.4,93.1,50.7,93.2z" class="st31"></path>
			<rect height="2.9" width="5.4" class="st33" transform="matrix(0.5 -0.866 0.866 0.5 -58.7034 91.7184)" y="95.2" x="47.4"></rect>
			<path d="M49.2,95.2c0.3-0.1,2-0.8,2.1-0.1c0,0.3-0.5,0.4-0.7,0.4c-0.2,0-0.3,0.1-0.5,0.2c-0.2,0.2-2.3,1.5-2.6,1.2
				c-0.1-0.2-0.2-0.4-0.2-0.7C47.2,95.4,49,95.2,49.2,95.2z" class="st20"></path>
			
				<linearGradient gradientTransform="matrix(1 0 0 -1 0 184)" y2="118.68" x2="44.43" y1="118.68" x1="40.12" gradientUnits="userSpaceOnUse" id="SVGID_00000168834743940741548780000018035760738216391089_">
				<stop style="stop-color:#E56C75" offset="0"></stop>
				<stop style="stop-color:#F39DBE" offset="0.48"></stop>
				<stop style="stop-color:#FCBCED" offset="0.83"></stop>
				<stop style="stop-color:#FFC8FF" offset="1"></stop>
			</linearGradient>
			<circle r="2.2" cy="65.3" cx="42.3" style="fill:url(#SVGID_00000168834743940741548780000018035760738216391089_);"></circle>
			
				<linearGradient gradientTransform="matrix(1 0 0 -1 0 184)" y2="104.29" x2="56.22" y1="104.29" x1="50.01" gradientUnits="userSpaceOnUse" id="SVGID_00000173856933390453201350000013804286567257069454_">
				<stop style="stop-color:#E56C75" offset="0"></stop>
				<stop style="stop-color:#F39DBE" offset="0.48"></stop>
				<stop style="stop-color:#FCBCED" offset="0.83"></stop>
				<stop style="stop-color:#FFC8FF" offset="1"></stop>
			</linearGradient>
			<circle r="3.1" cy="79.7" cx="53.1" style="fill:url(#SVGID_00000173856933390453201350000013804286567257069454_);"></circle>
			
				<linearGradient gradientTransform="matrix(1 0 0 -1 0 184)" y2="132.15" x2="52.43" y1="132.15" x1="50.27" gradientUnits="userSpaceOnUse" id="SVGID_00000145764250750289992270000017299167091824656043_">
				<stop style="stop-color:#E56C75" offset="0"></stop>
				<stop style="stop-color:#F39DBE" offset="0.48"></stop>
				<stop style="stop-color:#FCBCED" offset="0.83"></stop>
				<stop style="stop-color:#FFC8FF" offset="1"></stop>
			</linearGradient>
			<circle r="1.1" cy="51.8" cx="51.3" style="fill:url(#SVGID_00000145764250750289992270000017299167091824656043_);"></circle>
			
				<linearGradient gradientTransform="matrix(1 0 0 -1 0 184)" y2="150.61" x2="88.15" y1="150.61" x1="86.39" gradientUnits="userSpaceOnUse" id="SVGID_00000099664352535505416430000016889424662470334605_">
				<stop style="stop-color:#E56C75" offset="0"></stop>
				<stop style="stop-color:#F39DBE" offset="0.48"></stop>
				<stop style="stop-color:#FCBCED" offset="0.83"></stop>
				<stop style="stop-color:#FFC8FF" offset="1"></stop>
			</linearGradient>
			<circle r="0.9" cy="33.4" cx="87.3" style="fill:url(#SVGID_00000099664352535505416430000016889424662470334605_);"></circle>
			
				<linearGradient gradientTransform="matrix(1 0 0 -1 0 184)" y2="137.88" x2="106.18" y1="137.88" x1="101.93" gradientUnits="userSpaceOnUse" id="SVGID_00000076592384646389756090000000324436894920779928_">
				<stop style="stop-color:#E56C75" offset="0"></stop>
				<stop style="stop-color:#F39DBE" offset="0.48"></stop>
				<stop style="stop-color:#FCBCED" offset="0.83"></stop>
				<stop style="stop-color:#FFC8FF" offset="1"></stop>
			</linearGradient>
			<circle r="2.1" cy="46.1" cx="104.1" style="fill:url(#SVGID_00000076592384646389756090000000324436894920779928_);"></circle>
			
				<radialGradient gradientUnits="userSpaceOnUse" gradientTransform="matrix(1 0 0 -1 0 184)" r="5.87" cy="125.34" cx="76.24" id="SVGID_00000033336026837344790120000013965017991398972312_">
				<stop style="stop-color:#FFFFFF;stop-opacity:0.8" offset="0"></stop>
				<stop style="stop-color:#FFFFFF;stop-opacity:0.75" offset="0.11"></stop>
				<stop style="stop-color:#FFFFFF;stop-opacity:0.61" offset="0.31"></stop>
				<stop style="stop-color:#FFFFFF;stop-opacity:0.4" offset="0.58"></stop>
				<stop style="stop-color:#FFFFFF;stop-opacity:0.1" offset="0.9"></stop>
				<stop style="stop-color:#FFFFFF;stop-opacity:0" offset="1"></stop>
			</radialGradient>
			<circle r="5.9" cy="58.7" cx="76.2" style="fill:url(#SVGID_00000033336026837344790120000013965017991398972312_);"></circle>
		</g>
	</g>
</g>
</svg>
