<svg width="34" height="34" viewBox="0 0 34 34" fill="none" xmlns="http://www.w3.org/2000/svg">
<path opacity="0.4" d="M22.774 2.83334H27.5708C29.5573 2.83334 31.167 4.45663 31.167 6.45996V11.2973C31.167 13.3006 29.5573 14.9239 27.5708 14.9239H22.774C20.7874 14.9239 19.1777 13.3006 19.1777 11.2973V6.45996C19.1777 4.45663 20.7874 2.83334 22.774 2.83334Z" fill="white"/>
<path fill-rule="evenodd" clip-rule="evenodd" d="M6.42974 2.83334H11.2265C13.2131 2.83334 14.8228 4.45663 14.8228 6.45996V11.2973C14.8228 13.3006 13.2131 14.9239 11.2265 14.9239H6.42974C4.44319 14.9239 2.8335 13.3006 2.8335 11.2973V6.45996C2.8335 4.45663 4.44319 2.83334 6.42974 2.83334ZM6.42974 19.0762H11.2265C13.2131 19.0762 14.8228 20.6994 14.8228 22.7028V27.5401C14.8228 29.542 13.2131 31.1667 11.2265 31.1667H6.42974C4.44319 31.1667 2.8335 29.542 2.8335 27.5401V22.7028C2.8335 20.6994 4.44319 19.0762 6.42974 19.0762ZM27.5706 19.0762H22.7739C20.7873 19.0762 19.1776 20.6994 19.1776 22.7028V27.5401C19.1776 29.542 20.7873 31.1667 22.7739 31.1667H27.5706C29.5572 31.1667 31.1669 29.542 31.1669 27.5401V22.7028C31.1669 20.6994 29.5572 19.0762 27.5706 19.0762Z" fill="white"/>
</svg>
